<svg version="1" xmlns="http://www.w3.org/2000/svg" width="682.667" height="682.667" viewBox="0 0 512.000000 512.000000"><path d="M244.8 86.5c-.2.1-3.2.5-6.8.8-22.2 2-37.4 8.6-55.8 24.2-.9.8-12 10.2-24.7 20.7-24 20.2-30.2 26.7-35.2 37.1-6.6 13.7-7.3 19.4-7.4 56.7 0 38.4 1.5 47.7 9.6 60.5 7.1 11.1 16.1 17.9 33.3 25.1 2.3.9 1.1 2.2-16.3 16.6-16.9 13.9-23.9 20.5-25.2 23.5-1.1 2.8-1.4 9.4-1.4 32.6.1 26.9.2 29.3 2.1 33.1 1.1 2.3 3.4 5 5.2 6.1 3.2 1.9 5.5 2 74.3 2.2 43 .1 74.2-.2 79-.8 15.7-2 29.5-6.5 39.7-13.1 4.9-3.2 40.6-32.1 42.8-34.7.3-.3 3.9-3.3 8-6.6 19.2-15.4 28-29 30.8-47.5.9-5.8.9-67 0-73.5-3-22.4-16.2-38.3-39.4-47.6-4.2-1.7-9.2-3.3-11-3.6-1.9-.3-3.4-.9-3.4-1.3 0-.8 2.5-3 14-12.5 4.7-3.8 9-7.4 9.6-8l6.6-5.5c10.7-8.7 10.2-6.9 10.3-42.5 0-29.4-.1-31.2-2-34.5-1.2-1.9-3.6-4.3-5.5-5.5-3.4-2-5-2-67.2-2.1-35.1-.1-63.9 0-64 .1zm129.9 6.3c1.8 1.3 3.6 3.5 4 5 .4 1.5.7 15.5.7 31.2 0 31.4-.4 33.8-6.2 36.2-1.9.8-18.3 1.2-53.5 1.3-39 .1-51.3.5-53.1 1.4-4.6 2.5-6.7 10.6-4.2 16.5 2.3 5.4 4.8 6.6 17.1 8.1 2.8.3 6.1.8 7.5 1.1 1.4.2 4.3.6 6.5.9 6.1.6 16.7 2 23 3 1.7.3 5.3.7 8 1.1 31.6 3.6 54 15.3 62.5 32.8 5.7 11.8 6.7 19.3 6.9 51.9.1 16.2-.3 32.5-.9 36.7-2.5 18.1-10.4 32-24.1 42.2-7 5.2-21.9 11.7-30.5 13.2-1.6.3-3.8.8-5 1-7.4 1.5-25.5 1.9-85.5 1.9-75.2 0-73.2.1-76-6.6-2-4.7-2-57.8 0-62.5 2.8-6.6 1.3-6.5 65.6-6.6 53.1-.1 58.3-.2 60.7-1.8 5.5-3.6 6.2-15.2 1.2-20.2-1.7-1.6-4.2-2.7-7.2-3.1-2.6-.4-5.8-.8-7.1-1.1-1.3-.2-4.5-.6-7-1-2.5-.3-5.7-.8-7.1-1-2.7-.4-16.1-2.3-20.7-2.8-4.2-.6-12.5-1.8-14.8-2.2-1.1-.2-4-.7-6.5-1-7.1-1-20.5-5.1-26.8-8.3-13.8-7-21.9-15.2-26.7-26.9-2.2-5.6-2.8-7.9-4.2-17.2-.8-5.6-.9-62.1-.1-67.5 1.7-11.2 5.2-20.3 10.7-28.2 11.9-16.9 30-26.1 58.1-29.6 1.4-.1 31.5-.3 67-.2h64.5l3.2 2.3z"/><path d="M243.4 127.6c-12 2.4-20.5 8.8-25.6 19.2l-3.3 6.7v27c0 25.4.1 27.3 2.1 31.6 4.4 9.5 14.4 13.8 42.4 18.4 1.9.3 4.4.9 5.5 1.2 1.1.3 2.9.7 4 .9 9 1.2 57.9 12 61.2 13.5 9.3 4.2 14.3 11 15.9 21.4.9 6.6 1.1 34.8.2 40.7-2.3 15.7-15.2 27.3-32.4 29.4-3.2.3-28.6.7-56.4.7-48.6 0-50.6 0-50.7 1.8-.2 2.3-6.4 2 58.7 2.1 43.6 0 50.3-.2 55.5-1.7 15.9-4.5 26.9-16.4 29.2-31.6 1-6.3.9-35.2-.1-42.2-1.8-12.8-9.9-22.2-22-25.9-2.4-.7-42.4-9.2-53.1-11.2-1.1-.2-6.7-1.4-12.5-2.5-5.8-1.2-11.4-2.3-12.5-2.5-10.7-2.2-17.7-4.2-21-6.1-9.3-5.3-10.5-9.8-10.5-38.5 0-16.3.4-22.9 1.5-26.7 2.9-9.7 10.9-17.7 20.9-21 4.4-1.4 11.8-1.7 53.9-1.9 26.9-.1 49.1-.5 49.3-.7.3-.2.2-1.1-.1-1.9-.5-1.3-7-1.5-47.3-1.5-33.6 0-48.4.4-52.8 1.3z"/></svg>